<svg width="100" height="24" viewBox="0 0 147 24" fill="none" xmlns="http://www.w3.org/2000/svg">
<g clip-path="url(#clip0_692_4308)">
<rect width="24" height="24" rx="7" fill="#171717"/>
<path fill-rule="evenodd" clip-rule="evenodd" d="M6.00003 2.66284e-05C6.00003 -0.47336 5.61627 -0.857117 5.14288 -0.857117C4.6695 -0.857117 4.28574 -0.47336 4.28574 2.66284e-05L2.61517e-05 2.61515e-05V4.28574C-0.473354 4.28575 -0.857107 4.66949 -0.857117 5.14287C-0.857126 5.61625 -0.473378 6.00003 8.21072e-06 6.00003H2.61517e-05V28H28V2.61515e-05L6.00003 2.66284e-05ZM6.00003 2.66284e-05H4.28574V4.28583L4.41523e-05 4.28574C3.81919e-05 4.28574 3.21122e-05 4.28574 2.61517e-05 4.28574V6.00003L4.28574 6.00011V18.8573C4.28574 19.3307 4.6695 19.7145 5.14288 19.7145H18V24C18 24.4733 18.3839 24.8572 18.8572 24.8572C19.3305 24.8572 19.7143 24.4733 19.7143 24V19.7145L24 19.7143C24.4735 19.7143 24.8572 19.3305 24.8572 18.8572C24.8572 18.3837 24.4733 18 24 18L19.7143 18.0002V5.14299C19.7143 4.6696 19.3305 4.28584 18.8572 4.28584H6.00003V2.66284e-05ZM6.00003 18.0002V6.00013H18V18.0002H6.00003Z" fill="url(#paint0_linear_692_4308)" fill-opacity="0.25"/>
<rect x="6" y="6" width="12" height="12" fill="white"/>
</g>
<path d="M32.0414 19V4.45455H34.236V17.1108H40.8269V19H32.0414ZM46.3347 19.2415C45.6434 19.2415 45.0184 19.1136 44.4597 18.858C43.901 18.5975 43.4583 18.2211 43.1316 17.7287C42.8096 17.2363 42.6486 16.6326 42.6486 15.9176C42.6486 15.3021 42.767 14.7955 43.0037 14.3977C43.2405 14 43.5601 13.6851 43.9625 13.4531C44.365 13.2211 44.8148 13.0459 45.312 12.9276C45.8091 12.8092 46.3158 12.7192 46.8319 12.6577C47.4853 12.5819 48.0156 12.5204 48.4228 12.473C48.83 12.4209 49.1259 12.3381 49.3105 12.2244C49.4952 12.1108 49.5875 11.9261 49.5875 11.6705V11.6207C49.5875 11.0005 49.4123 10.5199 49.062 10.179C48.7163 9.83807 48.2002 9.66761 47.5137 9.66761C46.7987 9.66761 46.2353 9.82623 45.8233 10.1435C45.4161 10.456 45.1344 10.804 44.9782 11.1875L42.9824 10.733C43.2192 10.0701 43.5648 9.53504 44.0194 9.12784C44.4786 8.71591 45.0066 8.41761 45.6032 8.23295C46.1998 8.04356 46.8271 7.94886 47.4853 7.94886C47.9209 7.94886 48.3825 8.00095 48.8702 8.10511C49.3626 8.20455 49.8219 8.3892 50.248 8.65909C50.6789 8.92898 51.0317 9.31487 51.3063 9.81676C51.5809 10.3139 51.7182 10.9602 51.7182 11.7557V19H49.6444V17.5085H49.5591C49.4218 17.7831 49.2158 18.053 48.9412 18.3182C48.6666 18.5833 48.3139 18.8035 47.883 18.9787C47.4521 19.1539 46.936 19.2415 46.3347 19.2415ZM46.7963 17.5369C47.3835 17.5369 47.8854 17.4209 48.302 17.1889C48.7234 16.9569 49.043 16.6539 49.2608 16.2798C49.4834 15.901 49.5946 15.4962 49.5946 15.0653V13.6591C49.5189 13.7348 49.3721 13.8059 49.1543 13.8722C48.9412 13.9337 48.6974 13.9882 48.4228 14.0355C48.1481 14.0781 47.8806 14.1184 47.6202 14.1562C47.3598 14.1894 47.142 14.2178 46.9668 14.2415C46.5549 14.2936 46.1784 14.3812 45.8375 14.5043C45.5014 14.6274 45.2315 14.8049 45.0279 15.0369C44.829 15.2642 44.7296 15.5672 44.7296 15.946C44.7296 16.4716 44.9237 16.8693 45.312 17.1392C45.7002 17.4044 46.195 17.5369 46.7963 17.5369ZM55.4984 23.0909C55.1812 23.0909 54.8923 23.0649 54.6319 23.0128C54.3715 22.9654 54.1774 22.9134 54.0495 22.8565L54.5609 21.1165C54.9492 21.2206 55.2948 21.2656 55.5978 21.2514C55.9009 21.2372 56.1684 21.1236 56.4004 20.9105C56.6371 20.6974 56.8455 20.3494 57.0254 19.8665L57.2882 19.142L53.2967 8.09091H55.5694L58.3322 16.5568H58.4458L61.2086 8.09091H63.4885L58.9927 20.456C58.7844 21.0241 58.5192 21.5047 58.1973 21.8977C57.8753 22.2955 57.4918 22.5938 57.0467 22.7926C56.6016 22.9915 56.0855 23.0909 55.4984 23.0909ZM69.7083 19.2202C68.6855 19.2202 67.793 18.9858 67.0307 18.517C66.2684 18.0483 65.6766 17.3925 65.2551 16.5497C64.8337 15.7069 64.623 14.7221 64.623 13.5952C64.623 12.4635 64.8337 11.474 65.2551 10.6264C65.6766 9.77888 66.2684 9.12074 67.0307 8.65199C67.793 8.18324 68.6855 7.94886 69.7083 7.94886C70.731 7.94886 71.6235 8.18324 72.3858 8.65199C73.1481 9.12074 73.74 9.77888 74.1614 10.6264C74.5828 11.474 74.7935 12.4635 74.7935 13.5952C74.7935 14.7221 74.5828 15.7069 74.1614 16.5497C73.74 17.3925 73.1481 18.0483 72.3858 18.517C71.6235 18.9858 70.731 19.2202 69.7083 19.2202ZM69.7154 17.4375C70.3783 17.4375 70.9275 17.2623 71.3631 16.9119C71.7987 16.5616 72.1207 16.0952 72.329 15.5128C72.5421 14.9304 72.6486 14.2888 72.6486 13.5881C72.6486 12.892 72.5421 12.2528 72.329 11.6705C72.1207 11.0833 71.7987 10.6122 71.3631 10.2571C70.9275 9.90199 70.3783 9.72443 69.7154 9.72443C69.0478 9.72443 68.4938 9.90199 68.0534 10.2571C67.6178 10.6122 67.2935 11.0833 67.0804 11.6705C66.8721 12.2528 66.7679 12.892 66.7679 13.5881C66.7679 14.2888 66.8721 14.9304 67.0804 15.5128C67.2935 16.0952 67.6178 16.5616 68.0534 16.9119C68.4938 17.2623 69.0478 17.4375 69.7154 17.4375ZM84.0744 14.4759V8.09091H86.2051V19H84.117V17.1108H84.0034C83.7524 17.6932 83.35 18.1785 82.796 18.5668C82.2467 18.9503 81.5626 19.142 80.7434 19.142C80.0427 19.142 79.4224 18.9882 78.8826 18.6804C78.3476 18.3679 77.9262 17.9062 77.6184 17.2955C77.3154 16.6847 77.1639 15.9295 77.1639 15.0298V8.09091H79.2875V14.7741C79.2875 15.5175 79.4934 16.1094 79.9054 16.5497C80.3173 16.9901 80.8523 17.2102 81.5105 17.2102C81.9082 17.2102 82.3036 17.1108 82.6966 16.9119C83.0943 16.7131 83.4234 16.4124 83.6838 16.0099C83.9489 15.6075 84.0791 15.0961 84.0744 14.4759ZM94.1507 8.09091V9.79545H88.1919V8.09091H94.1507ZM89.79 5.47727H91.9135V15.7969C91.9135 16.2088 91.9751 16.5189 92.0982 16.7273C92.2213 16.9309 92.3799 17.0705 92.574 17.1463C92.7729 17.2173 92.9883 17.2528 93.2203 17.2528C93.3908 17.2528 93.54 17.241 93.6678 17.2173C93.7956 17.1937 93.8951 17.1747 93.9661 17.1605L94.3496 18.9148C94.2265 18.9621 94.0513 19.0095 93.824 19.0568C93.5968 19.1089 93.3127 19.1373 92.9718 19.142C92.4131 19.1515 91.8922 19.0521 91.4093 18.8438C90.9263 18.6354 90.5357 18.3134 90.2374 17.8778C89.9391 17.4422 89.79 16.8954 89.79 16.2372V5.47727ZM104.499 10.7543L102.574 11.0952C102.494 10.849 102.366 10.6146 102.191 10.392C102.02 10.1695 101.788 9.98722 101.494 9.84517C101.201 9.70312 100.834 9.6321 100.394 9.6321C99.7923 9.6321 99.2904 9.76705 98.888 10.0369C98.4855 10.3021 98.2843 10.6454 98.2843 11.0668C98.2843 11.4313 98.4192 11.7249 98.6891 11.9474C98.959 12.17 99.3946 12.3523 99.9959 12.4943L101.729 12.892C102.733 13.1241 103.481 13.4815 103.973 13.9645C104.466 14.4474 104.712 15.0748 104.712 15.8466C104.712 16.5 104.522 17.0824 104.144 17.5938C103.77 18.1004 103.246 18.4981 102.574 18.7869C101.906 19.0758 101.132 19.2202 100.252 19.2202C99.03 19.2202 98.0333 18.9598 97.2615 18.4389C96.4898 17.9134 96.0163 17.1676 95.8411 16.2017L97.8936 15.8892C98.0215 16.4242 98.2843 16.8291 98.682 17.1037C99.0797 17.3736 99.5982 17.5085 100.237 17.5085C100.933 17.5085 101.49 17.3641 101.906 17.0753C102.323 16.7817 102.531 16.4242 102.531 16.0028C102.531 15.6619 102.404 15.3755 102.148 15.1435C101.897 14.9115 101.511 14.7363 100.99 14.6179L99.1436 14.2131C98.1257 13.9811 97.3728 13.6117 96.8851 13.1051C96.4022 12.5985 96.1607 11.9569 96.1607 11.1804C96.1607 10.5365 96.3406 9.97301 96.7005 9.49006C97.0603 9.0071 97.5575 8.63068 98.1919 8.3608C98.8264 8.08617 99.5532 7.94886 100.372 7.94886C101.551 7.94886 102.479 8.20455 103.156 8.71591C103.834 9.22254 104.281 9.90199 104.499 10.7543ZM108.446 19.1349C108.058 19.1349 107.724 18.9976 107.444 18.723C107.165 18.4437 107.025 18.1075 107.025 17.7145C107.025 17.3262 107.165 16.9948 107.444 16.7202C107.724 16.4408 108.058 16.3011 108.446 16.3011C108.834 16.3011 109.168 16.4408 109.447 16.7202C109.727 16.9948 109.866 17.3262 109.866 17.7145C109.866 17.9749 109.8 18.214 109.667 18.4318C109.54 18.6449 109.369 18.8153 109.156 18.9432C108.943 19.071 108.706 19.1349 108.446 19.1349ZM116.795 19.2131C115.914 19.2131 115.128 18.9882 114.437 18.5384C113.75 18.0838 113.21 17.4375 112.817 16.5994C112.429 15.7566 112.235 14.7457 112.235 13.5668C112.235 12.3878 112.431 11.3793 112.824 10.5412C113.222 9.70312 113.767 9.06155 114.458 8.61648C115.149 8.1714 115.933 7.94886 116.809 7.94886C117.486 7.94886 118.03 8.0625 118.442 8.28977C118.859 8.51231 119.181 8.77273 119.408 9.07102C119.64 9.36932 119.82 9.6321 119.948 9.85938H120.076V4.45455H122.199V19H120.126V17.3026H119.948C119.82 17.5346 119.635 17.7997 119.394 18.098C119.157 18.3963 118.831 18.6567 118.414 18.8793C117.997 19.1018 117.457 19.2131 116.795 19.2131ZM117.263 17.402C117.874 17.402 118.39 17.241 118.812 16.919C119.238 16.5923 119.56 16.1402 119.778 15.5625C120 14.9848 120.111 14.3125 120.111 13.5455C120.111 12.7879 120.002 12.125 119.785 11.5568C119.567 10.9886 119.247 10.5459 118.826 10.2287C118.404 9.91146 117.884 9.75284 117.263 9.75284C116.624 9.75284 116.091 9.91856 115.665 10.25C115.239 10.5814 114.917 11.0336 114.699 11.6065C114.486 12.1795 114.38 12.8258 114.38 13.5455C114.38 14.2746 114.489 14.9304 114.706 15.5128C114.924 16.0952 115.246 16.5568 115.672 16.8977C116.103 17.2339 116.634 17.402 117.263 17.402ZM129.932 19.2202C128.857 19.2202 127.932 18.9905 127.155 18.5312C126.383 18.0672 125.787 17.4162 125.365 16.5781C124.949 15.7353 124.74 14.7481 124.74 13.6165C124.74 12.4991 124.949 11.5142 125.365 10.6619C125.787 9.80966 126.374 9.14441 127.127 8.66619C127.884 8.18797 128.77 7.94886 129.783 7.94886C130.398 7.94886 130.995 8.05066 131.573 8.25426C132.15 8.45786 132.669 8.77746 133.128 9.21307C133.587 9.64867 133.95 10.2145 134.215 10.9105C134.48 11.6018 134.612 12.4422 134.612 13.4318V14.1847H125.941V12.5938H132.531C132.531 12.035 132.418 11.5402 132.191 11.1094C131.963 10.6738 131.644 10.3305 131.232 10.0795C130.825 9.8286 130.346 9.70312 129.797 9.70312C129.2 9.70312 128.68 9.84991 128.235 10.1435C127.794 10.4323 127.453 10.8111 127.212 11.2798C126.975 11.7438 126.857 12.2481 126.857 12.7926V14.0355C126.857 14.7647 126.985 15.3849 127.24 15.8963C127.501 16.4077 127.863 16.7983 128.327 17.0682C128.791 17.3333 129.333 17.4659 129.953 17.4659C130.356 17.4659 130.723 17.4091 131.054 17.2955C131.386 17.1771 131.672 17.0019 131.914 16.7699C132.155 16.5379 132.34 16.2514 132.468 15.9105L134.477 16.2727C134.316 16.8646 134.028 17.383 133.611 17.8281C133.199 18.2685 132.681 18.6117 132.056 18.858C131.435 19.0994 130.727 19.2202 129.932 19.2202ZM145.988 8.09091L142.032 19H139.76L135.797 8.09091H138.077L140.839 16.4858H140.953L143.709 8.09091H145.988Z" fill="white"/>
<defs>
<linearGradient id="paint0_linear_692_4308" x1="8.76193" y1="-0.77598" x2="18.381" y2="25.6764" gradientUnits="userSpaceOnUse">
<stop stop-color="#F5F5F5"/>
<stop offset="1" stop-color="#C5C5C5" stop-opacity="0.48"/>
<stop offset="1" stop-color="#C5C5C5"/>
</linearGradient>
<clipPath id="clip0_692_4308">
<rect width="24" height="24" rx="7" fill="white"/>
</clipPath>
</defs>
</svg>
