<svg width="100" height="24" viewBox="0 0 148 24" fill="none" xmlns="http://www.w3.org/2000/svg">
<g clip-path="url(#clip0_691_4307)">
<mask id="mask0_691_4307" style="mask-type:luminance" maskUnits="userSpaceOnUse" x="0" y="0" width="25" height="24">
<path d="M18.5 0H6.5C3.18629 0 0.5 2.68629 0.5 6V18C0.5 21.3137 3.18629 24 6.5 24H18.5C21.8137 24 24.5 21.3137 24.5 18V6C24.5 2.68629 21.8137 0 18.5 0Z" fill="white"/>
</mask>
<g mask="url(#mask0_691_4307)">
<path d="M18.5 0H6.5C3.18629 0 0.5 2.68629 0.5 6V18C0.5 21.3137 3.18629 24 6.5 24H18.5C21.8137 24 24.5 21.3137 24.5 18V6C24.5 2.68629 21.8137 0 18.5 0Z" fill="white"/>
<path fill-rule="evenodd" clip-rule="evenodd" d="M6.5 2.65752e-05C6.5 -0.47336 6.11624 -0.857117 5.64285 -0.857117C5.16947 -0.857117 4.78571 -0.47336 4.78571 2.65752e-05L0.499996 2.61664e-05V4.28574C0.0266162 4.28575 -0.357138 4.66949 -0.357147 5.14287C-0.357156 5.61625 0.0265914 6.00003 0.499978 6.00003L0.499996 24H18.5C18.5 24.4733 18.8838 24.8572 19.3571 24.8572C19.8305 24.8572 20.2143 24.4733 20.2143 24H24.5V19.7143C24.9735 19.7143 25.3571 19.3305 25.3571 18.8572C25.3571 18.3837 24.9733 18 24.5 18V2.61664e-05L6.5 2.65752e-05ZM6.5 2.65752e-05H4.78571V4.28583L0.499996 4.28574C0.500002 4.28574 0.49999 4.28574 0.499996 4.28574L0.499978 6.00003L4.78571 6.00011V18.8573C4.78571 19.3307 5.16947 19.7145 5.64285 19.7145H18.5V24H20.2143V19.7145L24.5 19.7143V18L20.2143 18.0002V5.14299C20.2143 4.6696 19.8305 4.28584 19.3571 4.28584H6.5V2.65752e-05ZM6.5 18.0002V6.00013H18.5V18.0002H6.5Z" fill="#C5C5C5"/>
<g filter="url(#filter0_d_691_4307)">
<path d="M18.5 6H6.5V18H18.5V6Z" fill="#171717" fill-opacity="0.65"/>
</g>
</g>
</g>
<path d="M32.5414 19V4.45455H34.736V17.1108H41.3269V19H32.5414ZM46.8347 19.2415C46.1434 19.2415 45.5184 19.1136 44.9597 18.858C44.401 18.5975 43.9583 18.2211 43.6316 17.7287C43.3096 17.2363 43.1486 16.6326 43.1486 15.9176C43.1486 15.3021 43.267 14.7955 43.5037 14.3977C43.7405 14 44.0601 13.6851 44.4625 13.4531C44.865 13.2211 45.3148 13.0459 45.812 12.9276C46.3091 12.8092 46.8158 12.7192 47.3319 12.6577C47.9853 12.5819 48.5156 12.5204 48.9228 12.473C49.33 12.4209 49.6259 12.3381 49.8105 12.2244C49.9952 12.1108 50.0875 11.9261 50.0875 11.6705V11.6207C50.0875 11.0005 49.9123 10.5199 49.562 10.179C49.2163 9.83807 48.7002 9.66761 48.0137 9.66761C47.2987 9.66761 46.7353 9.82623 46.3233 10.1435C45.9161 10.456 45.6344 10.804 45.4782 11.1875L43.4824 10.733C43.7192 10.0701 44.0648 9.53504 44.5194 9.12784C44.9786 8.71591 45.5066 8.41761 46.1032 8.23295C46.6998 8.04356 47.3271 7.94886 47.9853 7.94886C48.4209 7.94886 48.8825 8.00095 49.3702 8.10511C49.8626 8.20455 50.3219 8.3892 50.748 8.65909C51.1789 8.92898 51.5317 9.31487 51.8063 9.81676C52.0809 10.3139 52.2182 10.9602 52.2182 11.7557V19H50.1444V17.5085H50.0591C49.9218 17.7831 49.7158 18.053 49.4412 18.3182C49.1666 18.5833 48.8139 18.8035 48.383 18.9787C47.9521 19.1539 47.436 19.2415 46.8347 19.2415ZM47.2963 17.5369C47.8835 17.5369 48.3854 17.4209 48.802 17.1889C49.2234 16.9569 49.543 16.6539 49.7608 16.2798C49.9834 15.901 50.0946 15.4962 50.0946 15.0653V13.6591C50.0189 13.7348 49.8721 13.8059 49.6543 13.8722C49.4412 13.9337 49.1974 13.9882 48.9228 14.0355C48.6481 14.0781 48.3806 14.1184 48.1202 14.1562C47.8598 14.1894 47.642 14.2178 47.4668 14.2415C47.0549 14.2936 46.6784 14.3812 46.3375 14.5043C46.0014 14.6274 45.7315 14.8049 45.5279 15.0369C45.329 15.2642 45.2296 15.5672 45.2296 15.946C45.2296 16.4716 45.4237 16.8693 45.812 17.1392C46.2002 17.4044 46.695 17.5369 47.2963 17.5369ZM55.9984 23.0909C55.6812 23.0909 55.3923 23.0649 55.1319 23.0128C54.8715 22.9654 54.6774 22.9134 54.5495 22.8565L55.0609 21.1165C55.4492 21.2206 55.7948 21.2656 56.0978 21.2514C56.4009 21.2372 56.6684 21.1236 56.9004 20.9105C57.1371 20.6974 57.3455 20.3494 57.5254 19.8665L57.7882 19.142L53.7967 8.09091H56.0694L58.8322 16.5568H58.9458L61.7086 8.09091H63.9885L59.4927 20.456C59.2844 21.0241 59.0192 21.5047 58.6973 21.8977C58.3753 22.2955 57.9918 22.5938 57.5467 22.7926C57.1016 22.9915 56.5855 23.0909 55.9984 23.0909ZM70.2083 19.2202C69.1855 19.2202 68.293 18.9858 67.5307 18.517C66.7684 18.0483 66.1766 17.3925 65.7551 16.5497C65.3337 15.7069 65.123 14.7221 65.123 13.5952C65.123 12.4635 65.3337 11.474 65.7551 10.6264C66.1766 9.77888 66.7684 9.12074 67.5307 8.65199C68.293 8.18324 69.1855 7.94886 70.2083 7.94886C71.231 7.94886 72.1235 8.18324 72.8858 8.65199C73.6481 9.12074 74.24 9.77888 74.6614 10.6264C75.0828 11.474 75.2935 12.4635 75.2935 13.5952C75.2935 14.7221 75.0828 15.7069 74.6614 16.5497C74.24 17.3925 73.6481 18.0483 72.8858 18.517C72.1235 18.9858 71.231 19.2202 70.2083 19.2202ZM70.2154 17.4375C70.8783 17.4375 71.4275 17.2623 71.8631 16.9119C72.2987 16.5616 72.6207 16.0952 72.829 15.5128C73.0421 14.9304 73.1486 14.2888 73.1486 13.5881C73.1486 12.892 73.0421 12.2528 72.829 11.6705C72.6207 11.0833 72.2987 10.6122 71.8631 10.2571C71.4275 9.90199 70.8783 9.72443 70.2154 9.72443C69.5478 9.72443 68.9938 9.90199 68.5534 10.2571C68.1178 10.6122 67.7935 11.0833 67.5804 11.6705C67.3721 12.2528 67.2679 12.892 67.2679 13.5881C67.2679 14.2888 67.3721 14.9304 67.5804 15.5128C67.7935 16.0952 68.1178 16.5616 68.5534 16.9119C68.9938 17.2623 69.5478 17.4375 70.2154 17.4375ZM84.5744 14.4759V8.09091H86.7051V19H84.617V17.1108H84.5034C84.2524 17.6932 83.85 18.1785 83.296 18.5668C82.7467 18.9503 82.0626 19.142 81.2434 19.142C80.5427 19.142 79.9224 18.9882 79.3826 18.6804C78.8476 18.3679 78.4262 17.9062 78.1184 17.2955C77.8154 16.6847 77.6639 15.9295 77.6639 15.0298V8.09091H79.7875V14.7741C79.7875 15.5175 79.9934 16.1094 80.4054 16.5497C80.8173 16.9901 81.3523 17.2102 82.0105 17.2102C82.4082 17.2102 82.8036 17.1108 83.1966 16.9119C83.5943 16.7131 83.9234 16.4124 84.1838 16.0099C84.4489 15.6075 84.5791 15.0961 84.5744 14.4759ZM94.6507 8.09091V9.79545H88.6919V8.09091H94.6507ZM90.29 5.47727H92.4135V15.7969C92.4135 16.2088 92.4751 16.5189 92.5982 16.7273C92.7213 16.9309 92.8799 17.0705 93.074 17.1463C93.2729 17.2173 93.4883 17.2528 93.7203 17.2528C93.8908 17.2528 94.04 17.241 94.1678 17.2173C94.2956 17.1937 94.3951 17.1747 94.4661 17.1605L94.8496 18.9148C94.7265 18.9621 94.5513 19.0095 94.324 19.0568C94.0968 19.1089 93.8127 19.1373 93.4718 19.142C92.9131 19.1515 92.3922 19.0521 91.9093 18.8438C91.4263 18.6354 91.0357 18.3134 90.7374 17.8778C90.4391 17.4422 90.29 16.8954 90.29 16.2372V5.47727ZM104.999 10.7543L103.074 11.0952C102.994 10.849 102.866 10.6146 102.691 10.392C102.52 10.1695 102.288 9.98722 101.994 9.84517C101.701 9.70312 101.334 9.6321 100.894 9.6321C100.292 9.6321 99.7904 9.76705 99.388 10.0369C98.9855 10.3021 98.7843 10.6454 98.7843 11.0668C98.7843 11.4313 98.9192 11.7249 99.1891 11.9474C99.459 12.17 99.8946 12.3523 100.496 12.4943L102.229 12.892C103.233 13.1241 103.981 13.4815 104.473 13.9645C104.966 14.4474 105.212 15.0748 105.212 15.8466C105.212 16.5 105.022 17.0824 104.644 17.5938C104.27 18.1004 103.746 18.4981 103.074 18.7869C102.406 19.0758 101.632 19.2202 100.752 19.2202C99.53 19.2202 98.5333 18.9598 97.7615 18.4389C96.9898 17.9134 96.5163 17.1676 96.3411 16.2017L98.3936 15.8892C98.5215 16.4242 98.7843 16.8291 99.182 17.1037C99.5797 17.3736 100.098 17.5085 100.737 17.5085C101.433 17.5085 101.99 17.3641 102.406 17.0753C102.823 16.7817 103.031 16.4242 103.031 16.0028C103.031 15.6619 102.904 15.3755 102.648 15.1435C102.397 14.9115 102.011 14.7363 101.49 14.6179L99.6436 14.2131C98.6257 13.9811 97.8728 13.6117 97.3851 13.1051C96.9022 12.5985 96.6607 11.9569 96.6607 11.1804C96.6607 10.5365 96.8406 9.97301 97.2005 9.49006C97.5603 9.0071 98.0575 8.63068 98.6919 8.3608C99.3264 8.08617 100.053 7.94886 100.872 7.94886C102.051 7.94886 102.979 8.20455 103.656 8.71591C104.334 9.22254 104.781 9.90199 104.999 10.7543ZM108.946 19.1349C108.558 19.1349 108.224 18.9976 107.944 18.723C107.665 18.4437 107.525 18.1075 107.525 17.7145C107.525 17.3262 107.665 16.9948 107.944 16.7202C108.224 16.4408 108.558 16.3011 108.946 16.3011C109.334 16.3011 109.668 16.4408 109.947 16.7202C110.227 16.9948 110.366 17.3262 110.366 17.7145C110.366 17.9749 110.3 18.214 110.167 18.4318C110.04 18.6449 109.869 18.8153 109.656 18.9432C109.443 19.071 109.206 19.1349 108.946 19.1349ZM117.295 19.2131C116.414 19.2131 115.628 18.9882 114.937 18.5384C114.25 18.0838 113.71 17.4375 113.317 16.5994C112.929 15.7566 112.735 14.7457 112.735 13.5668C112.735 12.3878 112.931 11.3793 113.324 10.5412C113.722 9.70312 114.267 9.06155 114.958 8.61648C115.649 8.1714 116.433 7.94886 117.309 7.94886C117.986 7.94886 118.53 8.0625 118.942 8.28977C119.359 8.51231 119.681 8.77273 119.908 9.07102C120.14 9.36932 120.32 9.6321 120.448 9.85938H120.576V4.45455H122.699V19H120.626V17.3026H120.448C120.32 17.5346 120.135 17.7997 119.894 18.098C119.657 18.3963 119.331 18.6567 118.914 18.8793C118.497 19.1018 117.957 19.2131 117.295 19.2131ZM117.763 17.402C118.374 17.402 118.89 17.241 119.312 16.919C119.738 16.5923 120.06 16.1402 120.278 15.5625C120.5 14.9848 120.611 14.3125 120.611 13.5455C120.611 12.7879 120.502 12.125 120.285 11.5568C120.067 10.9886 119.747 10.5459 119.326 10.2287C118.904 9.91146 118.384 9.75284 117.763 9.75284C117.124 9.75284 116.591 9.91856 116.165 10.25C115.739 10.5814 115.417 11.0336 115.199 11.6065C114.986 12.1795 114.88 12.8258 114.88 13.5455C114.88 14.2746 114.989 14.9304 115.206 15.5128C115.424 16.0952 115.746 16.5568 116.172 16.8977C116.603 17.2339 117.134 17.402 117.763 17.402ZM130.432 19.2202C129.357 19.2202 128.432 18.9905 127.655 18.5312C126.883 18.0672 126.287 17.4162 125.865 16.5781C125.449 15.7353 125.24 14.7481 125.24 13.6165C125.24 12.4991 125.449 11.5142 125.865 10.6619C126.287 9.80966 126.874 9.14441 127.627 8.66619C128.384 8.18797 129.27 7.94886 130.283 7.94886C130.898 7.94886 131.495 8.05066 132.073 8.25426C132.65 8.45786 133.169 8.77746 133.628 9.21307C134.087 9.64867 134.45 10.2145 134.715 10.9105C134.98 11.6018 135.112 12.4422 135.112 13.4318V14.1847H126.441V12.5938H133.031C133.031 12.035 132.918 11.5402 132.691 11.1094C132.463 10.6738 132.144 10.3305 131.732 10.0795C131.325 9.8286 130.846 9.70312 130.297 9.70312C129.7 9.70312 129.18 9.84991 128.735 10.1435C128.294 10.4323 127.953 10.8111 127.712 11.2798C127.475 11.7438 127.357 12.2481 127.357 12.7926V14.0355C127.357 14.7647 127.485 15.3849 127.74 15.8963C128.001 16.4077 128.363 16.7983 128.827 17.0682C129.291 17.3333 129.833 17.4659 130.453 17.4659C130.856 17.4659 131.223 17.4091 131.554 17.2955C131.886 17.1771 132.172 17.0019 132.414 16.7699C132.655 16.5379 132.84 16.2514 132.968 15.9105L134.977 16.2727C134.816 16.8646 134.528 17.383 134.111 17.8281C133.699 18.2685 133.181 18.6117 132.556 18.858C131.935 19.0994 131.227 19.2202 130.432 19.2202ZM146.488 8.09091L142.532 19H140.26L136.297 8.09091H138.577L141.339 16.4858H141.453L144.209 8.09091H146.488Z" fill="#171717"/>
<defs>
<filter id="filter0_d_691_4307" x="2.5" y="6" width="20" height="20" filterUnits="userSpaceOnUse" color-interpolation-filters="sRGB">
<feFlood flood-opacity="0" result="BackgroundImageFix"/>
<feColorMatrix in="SourceAlpha" type="matrix" values="0 0 0 0 0 0 0 0 0 0 0 0 0 0 0 0 0 0 127 0" result="hardAlpha"/>
<feOffset dy="4"/>
<feGaussianBlur stdDeviation="2"/>
<feComposite in2="hardAlpha" operator="out"/>
<feColorMatrix type="matrix" values="0 0 0 0 0 0 0 0 0 0 0 0 0 0 0 0 0 0 0.18 0"/>
<feBlend mode="normal" in2="BackgroundImageFix" result="effect1_dropShadow_691_4307"/>
<feBlend mode="normal" in="SourceGraphic" in2="effect1_dropShadow_691_4307" result="shape"/>
</filter>
<clipPath id="clip0_691_4307">
<rect width="24" height="24" fill="white" transform="translate(0.5)"/>
</clipPath>
</defs>
</svg>
